<?xml version="1.0" encoding="utf-8"?>
<!-- Generator: Adobe Illustrator 21.0.0, SVG Export Plug-In . SVG Version: 6.00 Build 0)  -->
<svg version="1.1" id="Layer_1" xmlns="http://www.w3.org/2000/svg" xmlns:xlink="http://www.w3.org/1999/xlink" x="0px" y="0px"
	 width="22px" height="21.8px" viewBox="0 0 22 21.8" style="enable-background:new 0 0 22 21.8;" xml:space="preserve">
<style type="text/css">
	.st0{fill:#EAF4E6;}
</style>
<path class="st0" d="M5,6.1c4,0.1,7.9,0.1,11.9,0.1c1.4,0,1.4-1.4,0-1.4c-4,0-7.9,0-11.9-0.1C3.5,4.6,3.5,6,5,6.1L5,6.1z M5,6.1"/>
<path class="st0" d="M17,7.8C13.2,7.7,9.3,7.7,5.5,7.9c-1.4,0.1-1.4,1.5,0,1.4C9.3,9.1,13.2,9.1,17,9.2C18.4,9.2,18.4,7.8,17,7.8
	L17,7.8z M17,7.8"/>
<path class="st0" d="M16.9,11.3c-3.6,0-7.3,0.1-10.9,0.1c-1.4,0-1.4,1.4,0,1.4c3.6,0,7.3-0.1,10.9-0.1
	C18.3,12.8,18.3,11.3,16.9,11.3L16.9,11.3z M16.9,11.3"/>
<g>
	<g>
		<path class="st0" d="M22,13.2l0-0.2c0-2.1,0-4.2-0.1-6.1l0-0.8c0-0.8-0.1-1.7-0.1-2.5l0-0.2c0-1-0.2-1.7-0.7-2.3
			c-0.4-0.5-1.1-0.8-2.2-0.9c0,0-0.1,0-0.1,0l0,0l0,0c-3.4,0.1-6.8,0-10.3-0.1L8.3,0L3.8,0L3.8,0l0,0C1.9,0,0.7,1,0.4,2.6
			c0,0.1,0,0.1,0,0.2l0,0l0,0.1c0,0,0,0,0,0.1C0.2,5.2,0.1,7.5,0,9.7c0,1.1,0,2.3,0,3.4c0,0.2,0,0.4,0,0.6c0,1,0,2,0.5,2.8
			C1,17.5,2,17.8,2.9,17.9c0,0,0.1,0,0.1,0l0.1,0c0,0,0,0,0,0c2.1-0.2,4.3-0.3,6.6-0.3l0,0l0,0c0.2,0.1,0.3,0.2,0.5,0.3l0,0
			c2.4,1.5,4.9,2.7,7,3.7c0.4,0.2,0.8,0,1-0.3c0.1-0.1,0.3-0.3,0.2-0.6c0-0.1,0-0.1-0.1-0.2l-1.2-3.1h1.1c0,0,0.1,0,0.1,0l0.1,0l0,0
			c0.9,0.1,1.6,0,2.1-0.4C21.9,16.2,22,14.6,22,13.2z M20.4,14.6c-0.1,0.5-0.2,0.9-0.5,1.1c-0.4,0.3-1,0.3-1.5,0.2
			c-0.2,0-0.3,0-0.5,0c-0.3,0-0.7,0-1,0c-0.3,0-0.5,0-0.8,0.1l0,0c-0.3,0-0.5,0.2-0.6,0.3c-0.1,0.2-0.1,0.4,0,0.6l1,2.5L16,19.2
			c-1.7-0.8-3.2-1.6-4.5-2.4c-0.1-0.1-0.1-0.1-0.2-0.1c-0.2-0.1-0.4-0.2-0.7-0.4l0,0c-0.1-0.2-0.3-0.3-0.6-0.3
			c-2.4,0-4.7,0.1-6.9,0.3c0,0,0,0,0,0l0,0l-0.1,0c-0.4,0-0.6-0.1-0.9-0.2C2,16,1.8,15.7,1.7,15.4c0-0.1,0-0.1-0.1-0.2l0-0.1l0-0.1
			c0-0.1,0-0.1,0-0.2C1.5,11,1.6,6.9,2,2.9C2.2,2,2.7,1.6,3.7,1.6c0,0,0,0,0,0l0,0l0,0l4.3,0c1.1,0,2.1,0,3.2,0.1c1,0,2,0.1,2.9,0.1
			c0.7,0,1.5,0,2.2-0.1c0.3,0,0.6,0,0.9,0l0.2,0c0.7,0,1.5-0.1,2.1,0.3c0.6,0.5,0.6,1.3,0.6,2.1c0,0.1,0,0.3,0,0.4l0,0.6
			c0,0.9,0.1,1.9,0.1,2.8c0,1.3,0.1,2.4,0.1,3.4c0,0.6,0,1.2,0,1.7c0,0.2,0,0.4,0,0.5C20.4,13.9,20.4,14.3,20.4,14.6z"/>
	</g>
</g>
</svg>
