<?xml version="1.0" encoding="utf-8"?>
<!-- Generator: Adobe Illustrator 21.0.0, SVG Export Plug-In . SVG Version: 6.00 Build 0)  -->
<svg version="1.1" id="Layer_1" xmlns="http://www.w3.org/2000/svg" xmlns:xlink="http://www.w3.org/1999/xlink" x="0px" y="0px"
	 width="24px" height="22.6px" viewBox="0 0 24 22.6" style="enable-background:new 0 0 24 22.6;" xml:space="preserve">
<style type="text/css">
	.st0{fill:none;enable-background:new    ;}
	.st1{fill:#BFEDCC;}
</style>
<path class="st0" d="z"/>
<path class="st1" d="M24,8.9c-0.1-0.1-0.2-0.2-0.4-0.3c-0.1-0.2-0.2-0.4-0.4-0.4c-1.5-0.4-3-0.4-4.5-0.3c-1.3,0-2.6,0.1-3.9-0.2
	c-0.3-1.4-0.8-2.8-1.3-4.1c-0.3-0.8-0.6-1.7-0.9-2.5c0,0,0,0,0-0.1c0.2-0.4,0-0.7-0.3-0.9c-0.3-0.2-0.7-0.1-0.9,0.2
	c0,0-0.1,0.1-0.1,0.1c-0.1,0.1-0.2,0.3-0.2,0.5C10.4,2.3,10,3.7,9.5,5.1C9.3,6,9,6.9,8.6,7.8c-0.8,0-1.7,0.1-2.5,0.1
	C4.3,8,2.5,8.1,0.7,7.9C0.3,7.9,0,8.2,0,8.5c0,0.3,0.2,0.7,0.6,0.7c1.5,1,2.8,2.3,4.1,3.5c0.5,0.5,1,1,1.5,1.4
	c-0.8,1.6-1.1,3.4-1.5,5.1c-0.2,0.8-0.3,1.6-0.5,2.4c0,0.2,0,0.4,0.1,0.5c0.1,0.1,0.2,0.2,0.4,0.3c0.1,0,0.1,0,0.2,0
	c0.1,0,0.2,0,0.3-0.1c0,0,0.1,0,0.1,0c0.1,0,0.2,0,0.2,0h0c1.6-0.6,2.8-1.8,4-2.9c0.7-0.7,1.5-1.4,2.3-2c1.2,0.2,2.2,1.1,3.1,2
	c0.6,0.6,1.3,1.2,2,1.7c0.5,0.4,1.1,0.8,1.6,1.3c0.1,0.1,0.3,0.2,0.5,0.2c0.1,0,0.1,0,0.2,0c0.1,0,0.2-0.1,0.2-0.1
	c0.1,0,0.2-0.1,0.3-0.2c0.2-0.2,0.3-0.4,0.2-0.6c-0.5-2.4-1.5-4.9-3-7.6c1.3-0.6,2.6-1.4,3.8-2.1c0.3-0.2,0.5-0.3,0.8-0.5
	c0.9-0.5,1.8-1,2.4-2C24.1,9.3,24.1,9.1,24,8.9z M15.9,13.1c-0.2,0.1-0.4,0.3-0.4,0.5c-0.1,0.2-0.2,0.5,0,0.7
	c1.2,2.2,2.1,4.2,2.7,6.2c-0.2-0.2-0.4-0.3-0.6-0.5c-0.7-0.6-1.5-1.2-2.2-1.9c-0.8-0.7-1.8-1.5-3-1.8c-0.2-0.2-0.5-0.3-0.8-0.1
	c0,0,0,0-0.1,0c-0.2,0-0.3,0.1-0.4,0.3c-0.8,0.6-1.6,1.3-2.3,2c-1,1-1.9,1.9-3,2.4C5.9,20.4,6,20,6,19.6c0.3-1.8,0.7-3.6,1.5-5.2
	c0.1-0.2,0.1-0.4,0-0.6c0-0.2-0.1-0.3-0.2-0.4c-0.6-0.5-1.2-1.1-1.8-1.6C4.7,11,3.8,10.1,2.9,9.3c1.1,0,2.2-0.1,3.3-0.1
	c1.1-0.1,2.2-0.1,3.3-0.1c0.4,0,0.7-0.3,0.7-0.7c0-0.1,0-0.2-0.1-0.3c0.3-0.8,0.6-1.7,0.8-2.5c0.3-0.9,0.6-1.8,0.9-2.7
	C11.9,3.2,12,3.6,12.2,4c0.5,1.3,1,2.6,1.3,3.9c-0.1,0.1-0.1,0.3,0,0.5c0,0.1,0.1,0.1,0.1,0.2l0.1,0.7l0.2-0.4c0,0,0.1,0,0.1,0
	c0.1,0.1,0.2,0.1,0.3,0.1c1.4,0.4,2.9,0.3,4.3,0.2c1.3-0.1,2.6-0.1,3.9,0.2c-0.5,0.4-1.1,0.8-1.7,1.1c-0.2,0.1-0.4,0.2-0.7,0.4
	c-0.3,0.2-0.6,0.4-1,0.6C18,12,17.1,12.6,15.9,13.1z"/>
</svg>
